<mxfile host="app.diagrams.net" modified="2023-02-16T11:38:54.269Z" agent="5.0 (Windows NT 10.0; Win64; x64) AppleWebKit/537.36 (KHTML, like Gecko) Chrome/109.0.0.0 Safari/537.36" etag="O9Efwtt5HELir-TdCz6R" version="20.8.20" type="github">
  <diagram id="C5RBs43oDa-KdzZeNtuy" name="Page-1">
    <mxGraphModel dx="1434" dy="796" grid="1" gridSize="10" guides="1" tooltips="1" connect="1" arrows="1" fold="1" page="1" pageScale="1" pageWidth="827" pageHeight="1169" math="0" shadow="0">
      <root>
        <mxCell id="WIyWlLk6GJQsqaUBKTNV-0" />
        <mxCell id="WIyWlLk6GJQsqaUBKTNV-1" parent="WIyWlLk6GJQsqaUBKTNV-0" />
        <mxCell id="XSE1MhLn1ybjhKXLYDKE-10" style="edgeStyle=orthogonalEdgeStyle;rounded=0;orthogonalLoop=1;jettySize=auto;html=1;exitX=0.5;exitY=1;exitDx=0;exitDy=0;entryX=0.5;entryY=0;entryDx=0;entryDy=0;" edge="1" parent="WIyWlLk6GJQsqaUBKTNV-1" source="XSE1MhLn1ybjhKXLYDKE-0" target="XSE1MhLn1ybjhKXLYDKE-1">
          <mxGeometry relative="1" as="geometry" />
        </mxCell>
        <mxCell id="XSE1MhLn1ybjhKXLYDKE-0" value="START" style="ellipse;whiteSpace=wrap;html=1;" vertex="1" parent="WIyWlLk6GJQsqaUBKTNV-1">
          <mxGeometry x="480" y="40" width="120" height="80" as="geometry" />
        </mxCell>
        <mxCell id="XSE1MhLn1ybjhKXLYDKE-11" style="edgeStyle=orthogonalEdgeStyle;rounded=0;orthogonalLoop=1;jettySize=auto;html=1;exitX=0.5;exitY=1;exitDx=0;exitDy=0;entryX=0.5;entryY=0;entryDx=0;entryDy=0;" edge="1" parent="WIyWlLk6GJQsqaUBKTNV-1" source="XSE1MhLn1ybjhKXLYDKE-1" target="XSE1MhLn1ybjhKXLYDKE-2">
          <mxGeometry relative="1" as="geometry" />
        </mxCell>
        <mxCell id="XSE1MhLn1ybjhKXLYDKE-1" value="Pobierz a&amp;nbsp;&lt;br&gt;i = 0 max = a[0]&lt;br&gt;min = a[0]" style="rounded=0;whiteSpace=wrap;html=1;" vertex="1" parent="WIyWlLk6GJQsqaUBKTNV-1">
          <mxGeometry x="480" y="150" width="120" height="50" as="geometry" />
        </mxCell>
        <mxCell id="XSE1MhLn1ybjhKXLYDKE-9" style="edgeStyle=orthogonalEdgeStyle;rounded=0;orthogonalLoop=1;jettySize=auto;html=1;exitX=0.5;exitY=1;exitDx=0;exitDy=0;entryX=0.5;entryY=0;entryDx=0;entryDy=0;" edge="1" parent="WIyWlLk6GJQsqaUBKTNV-1" source="XSE1MhLn1ybjhKXLYDKE-2" target="XSE1MhLn1ybjhKXLYDKE-7">
          <mxGeometry relative="1" as="geometry" />
        </mxCell>
        <mxCell id="XSE1MhLn1ybjhKXLYDKE-14" style="edgeStyle=orthogonalEdgeStyle;rounded=0;orthogonalLoop=1;jettySize=auto;html=1;exitX=0;exitY=0.5;exitDx=0;exitDy=0;entryX=1;entryY=0.5;entryDx=0;entryDy=0;" edge="1" parent="WIyWlLk6GJQsqaUBKTNV-1" source="XSE1MhLn1ybjhKXLYDKE-2" target="XSE1MhLn1ybjhKXLYDKE-3">
          <mxGeometry relative="1" as="geometry" />
        </mxCell>
        <mxCell id="XSE1MhLn1ybjhKXLYDKE-2" value="i &amp;lt; a.dlugość" style="rhombus;whiteSpace=wrap;html=1;" vertex="1" parent="WIyWlLk6GJQsqaUBKTNV-1">
          <mxGeometry x="500" y="230" width="80" height="80" as="geometry" />
        </mxCell>
        <mxCell id="XSE1MhLn1ybjhKXLYDKE-16" style="edgeStyle=orthogonalEdgeStyle;rounded=0;orthogonalLoop=1;jettySize=auto;html=1;exitX=0;exitY=0.5;exitDx=0;exitDy=0;entryX=1;entryY=0.5;entryDx=0;entryDy=0;" edge="1" parent="WIyWlLk6GJQsqaUBKTNV-1" source="XSE1MhLn1ybjhKXLYDKE-3" target="XSE1MhLn1ybjhKXLYDKE-4">
          <mxGeometry relative="1" as="geometry" />
        </mxCell>
        <mxCell id="XSE1MhLn1ybjhKXLYDKE-18" style="edgeStyle=orthogonalEdgeStyle;rounded=0;orthogonalLoop=1;jettySize=auto;html=1;exitX=0.5;exitY=1;exitDx=0;exitDy=0;entryX=0.5;entryY=0;entryDx=0;entryDy=0;" edge="1" parent="WIyWlLk6GJQsqaUBKTNV-1" source="XSE1MhLn1ybjhKXLYDKE-3" target="XSE1MhLn1ybjhKXLYDKE-6">
          <mxGeometry relative="1" as="geometry" />
        </mxCell>
        <mxCell id="XSE1MhLn1ybjhKXLYDKE-3" value="min &amp;lt; dlugość" style="rhombus;whiteSpace=wrap;html=1;" vertex="1" parent="WIyWlLk6GJQsqaUBKTNV-1">
          <mxGeometry x="370" y="230" width="80" height="80" as="geometry" />
        </mxCell>
        <mxCell id="XSE1MhLn1ybjhKXLYDKE-21" style="edgeStyle=orthogonalEdgeStyle;rounded=0;orthogonalLoop=1;jettySize=auto;html=1;exitX=0.5;exitY=1;exitDx=0;exitDy=0;entryX=0.5;entryY=0;entryDx=0;entryDy=0;" edge="1" parent="WIyWlLk6GJQsqaUBKTNV-1" source="XSE1MhLn1ybjhKXLYDKE-4" target="XSE1MhLn1ybjhKXLYDKE-5">
          <mxGeometry relative="1" as="geometry" />
        </mxCell>
        <mxCell id="XSE1MhLn1ybjhKXLYDKE-24" style="edgeStyle=orthogonalEdgeStyle;rounded=0;orthogonalLoop=1;jettySize=auto;html=1;exitX=0.5;exitY=0;exitDx=0;exitDy=0;" edge="1" parent="WIyWlLk6GJQsqaUBKTNV-1" source="XSE1MhLn1ybjhKXLYDKE-4">
          <mxGeometry relative="1" as="geometry">
            <mxPoint x="254" y="210" as="targetPoint" />
          </mxGeometry>
        </mxCell>
        <mxCell id="XSE1MhLn1ybjhKXLYDKE-4" value="max &amp;gt; a[0]" style="rhombus;whiteSpace=wrap;html=1;" vertex="1" parent="WIyWlLk6GJQsqaUBKTNV-1">
          <mxGeometry x="214" y="230" width="80" height="80" as="geometry" />
        </mxCell>
        <mxCell id="XSE1MhLn1ybjhKXLYDKE-23" style="edgeStyle=orthogonalEdgeStyle;rounded=0;orthogonalLoop=1;jettySize=auto;html=1;exitX=0;exitY=0.5;exitDx=0;exitDy=0;entryX=0.5;entryY=0;entryDx=0;entryDy=0;" edge="1" parent="WIyWlLk6GJQsqaUBKTNV-1" source="XSE1MhLn1ybjhKXLYDKE-5" target="XSE1MhLn1ybjhKXLYDKE-2">
          <mxGeometry relative="1" as="geometry" />
        </mxCell>
        <mxCell id="XSE1MhLn1ybjhKXLYDKE-5" value="max = a[i]" style="rounded=0;whiteSpace=wrap;html=1;" vertex="1" parent="WIyWlLk6GJQsqaUBKTNV-1">
          <mxGeometry x="194" y="340" width="120" height="60" as="geometry" />
        </mxCell>
        <mxCell id="XSE1MhLn1ybjhKXLYDKE-20" style="edgeStyle=orthogonalEdgeStyle;rounded=0;orthogonalLoop=1;jettySize=auto;html=1;exitX=0;exitY=0.5;exitDx=0;exitDy=0;entryX=1;entryY=0.5;entryDx=0;entryDy=0;" edge="1" parent="WIyWlLk6GJQsqaUBKTNV-1" source="XSE1MhLn1ybjhKXLYDKE-6" target="XSE1MhLn1ybjhKXLYDKE-4">
          <mxGeometry relative="1" as="geometry" />
        </mxCell>
        <mxCell id="XSE1MhLn1ybjhKXLYDKE-6" value="min = a[i]" style="rounded=0;whiteSpace=wrap;html=1;" vertex="1" parent="WIyWlLk6GJQsqaUBKTNV-1">
          <mxGeometry x="350" y="340" width="120" height="60" as="geometry" />
        </mxCell>
        <mxCell id="XSE1MhLn1ybjhKXLYDKE-12" style="edgeStyle=orthogonalEdgeStyle;rounded=0;orthogonalLoop=1;jettySize=auto;html=1;exitX=0.5;exitY=1;exitDx=0;exitDy=0;entryX=0.5;entryY=0;entryDx=0;entryDy=0;" edge="1" parent="WIyWlLk6GJQsqaUBKTNV-1" source="XSE1MhLn1ybjhKXLYDKE-7" target="XSE1MhLn1ybjhKXLYDKE-8">
          <mxGeometry relative="1" as="geometry" />
        </mxCell>
        <mxCell id="XSE1MhLn1ybjhKXLYDKE-7" value="Wyświetl min i max" style="rounded=0;whiteSpace=wrap;html=1;" vertex="1" parent="WIyWlLk6GJQsqaUBKTNV-1">
          <mxGeometry x="480" y="340" width="120" height="60" as="geometry" />
        </mxCell>
        <mxCell id="XSE1MhLn1ybjhKXLYDKE-8" value="STOP" style="ellipse;whiteSpace=wrap;html=1;" vertex="1" parent="WIyWlLk6GJQsqaUBKTNV-1">
          <mxGeometry x="480" y="420" width="120" height="80" as="geometry" />
        </mxCell>
        <mxCell id="XSE1MhLn1ybjhKXLYDKE-13" value="NIE" style="text;html=1;align=center;verticalAlign=middle;resizable=0;points=[];autosize=1;strokeColor=none;fillColor=none;" vertex="1" parent="WIyWlLk6GJQsqaUBKTNV-1">
          <mxGeometry x="540" y="310" width="40" height="30" as="geometry" />
        </mxCell>
        <mxCell id="XSE1MhLn1ybjhKXLYDKE-15" value="TAK" style="text;html=1;align=center;verticalAlign=middle;resizable=0;points=[];autosize=1;strokeColor=none;fillColor=none;" vertex="1" parent="WIyWlLk6GJQsqaUBKTNV-1">
          <mxGeometry x="454" y="240" width="50" height="30" as="geometry" />
        </mxCell>
        <mxCell id="XSE1MhLn1ybjhKXLYDKE-17" value="NIE" style="text;html=1;align=center;verticalAlign=middle;resizable=0;points=[];autosize=1;strokeColor=none;fillColor=none;" vertex="1" parent="WIyWlLk6GJQsqaUBKTNV-1">
          <mxGeometry x="314" y="240" width="40" height="30" as="geometry" />
        </mxCell>
        <mxCell id="XSE1MhLn1ybjhKXLYDKE-19" value="TAK" style="text;html=1;align=center;verticalAlign=middle;resizable=0;points=[];autosize=1;strokeColor=none;fillColor=none;" vertex="1" parent="WIyWlLk6GJQsqaUBKTNV-1">
          <mxGeometry x="414" y="310" width="50" height="30" as="geometry" />
        </mxCell>
        <mxCell id="XSE1MhLn1ybjhKXLYDKE-22" value="NIE" style="text;html=1;align=center;verticalAlign=middle;resizable=0;points=[];autosize=1;strokeColor=none;fillColor=none;" vertex="1" parent="WIyWlLk6GJQsqaUBKTNV-1">
          <mxGeometry x="254" y="310" width="40" height="30" as="geometry" />
        </mxCell>
        <mxCell id="XSE1MhLn1ybjhKXLYDKE-25" value="TAK" style="text;html=1;align=center;verticalAlign=middle;resizable=0;points=[];autosize=1;strokeColor=none;fillColor=none;" vertex="1" parent="WIyWlLk6GJQsqaUBKTNV-1">
          <mxGeometry x="254" y="210" width="50" height="30" as="geometry" />
        </mxCell>
      </root>
    </mxGraphModel>
  </diagram>
</mxfile>
